<svg width="246" height="211" viewBox="0 0 246 211" fill="none" xmlns="http://www.w3.org/2000/svg">
    <rect width="246" height="211" fill="white"/>
    <rect x="16" y="148" width="214" height="43" rx="2" fill="#0070E6"/>
    <path d="M66.8039 175V163.56H73.9559V165.24H68.9319V168.376H72.9639V169.976H68.9319V173.32H74.2279V175H66.8039ZM75.2498 175L78.1618 170.712L75.4418 166.632H77.6818L79.4258 169.336L81.1538 166.632H83.1858L80.4818 170.568L83.4738 175H81.2178L79.2658 171.976L77.2658 175H75.2498ZM84.9564 177.864V166.632H86.8924V167.976C87.1377 167.549 87.5057 167.192 87.9964 166.904C88.4977 166.605 89.0417 166.456 89.6284 166.456C90.7057 166.456 91.5911 166.84 92.2844 167.608C92.9884 168.365 93.3404 169.4 93.3404 170.712V170.84C93.3404 172.163 92.9937 173.213 92.3004 173.992C91.6177 174.771 90.7271 175.16 89.6284 175.16C88.9991 175.16 88.4444 175.027 87.9644 174.76C87.4844 174.483 87.1271 174.125 86.8924 173.688V177.864H84.9564ZM89.1484 173.624C89.8631 173.624 90.4071 173.389 90.7804 172.92C91.1644 172.451 91.3564 171.768 91.3564 170.872V170.744C91.3564 169.848 91.1484 169.165 90.7324 168.696C90.3271 168.216 89.7937 167.976 89.1324 167.976C88.4391 167.976 87.8791 168.216 87.4524 168.696C87.0364 169.165 86.8284 169.848 86.8284 170.744V170.872C86.8284 171.779 87.0311 172.467 87.4364 172.936C87.8524 173.395 88.4231 173.624 89.1484 173.624ZM98.8254 173.656C99.5401 173.656 100.1 173.411 100.505 172.92C100.921 172.419 101.129 171.736 101.129 170.872V170.76C101.129 169.896 100.921 169.219 100.505 168.728C100.1 168.227 99.5401 167.976 98.8254 167.976C98.1001 167.976 97.5294 168.221 97.1134 168.712C96.7081 169.203 96.5054 169.88 96.5054 170.744V170.872C96.5054 171.736 96.7081 172.419 97.1134 172.92C97.5294 173.411 98.1001 173.656 98.8254 173.656ZM101.897 173.976C101.087 174.765 100.057 175.16 98.8094 175.16C97.5614 175.16 96.5321 174.765 95.7214 173.976C94.9214 173.187 94.5214 172.163 94.5214 170.904V170.776C94.5214 169.496 94.9267 168.456 95.7374 167.656C96.5481 166.856 97.5774 166.456 98.8254 166.456C100.063 166.456 101.087 166.851 101.897 167.64C102.708 168.429 103.113 169.459 103.113 170.728V170.856C103.113 172.147 102.708 173.187 101.897 173.976ZM104.863 175V166.632H106.799V168.2C107.353 167.08 108.26 166.515 109.519 166.504V168.312C108.612 168.323 107.929 168.504 107.471 168.856C107.023 169.208 106.799 169.805 106.799 170.648V175H104.863ZM114.148 175.144C113.327 175.144 112.697 174.931 112.26 174.504C111.833 174.077 111.62 173.464 111.62 172.664V168.088H110.5V166.632H111.62V164.792H113.556V166.632H115.396V168.088H113.556V172.488C113.556 173.203 113.876 173.56 114.516 173.56C114.889 173.56 115.204 173.507 115.46 173.4V174.936C115.087 175.075 114.649 175.144 114.148 175.144ZM121.243 175V163.56H123.387V175H121.243ZM125.925 175V166.632H127.861V167.96C128.074 167.523 128.416 167.165 128.885 166.888C129.354 166.6 129.914 166.456 130.565 166.456C131.45 166.456 132.149 166.728 132.661 167.272C133.173 167.805 133.429 168.627 133.429 169.736V175H131.493V169.912C131.493 169.283 131.36 168.819 131.093 168.52C130.826 168.221 130.405 168.072 129.829 168.072C129.253 168.072 128.778 168.248 128.405 168.6C128.042 168.941 127.861 169.432 127.861 170.072V175H125.925ZM138.524 175.16C137.446 175.16 136.604 174.92 135.996 174.44C135.388 173.96 135.062 173.277 135.02 172.392H136.844C136.897 172.84 137.052 173.176 137.308 173.4C137.564 173.624 137.964 173.736 138.508 173.736C139.51 173.736 140.012 173.379 140.012 172.664C140.012 172.333 139.873 172.088 139.596 171.928C139.329 171.757 138.87 171.619 138.22 171.512C137.1 171.331 136.316 171.059 135.868 170.696C135.42 170.323 135.196 169.747 135.196 168.968C135.196 168.179 135.505 167.565 136.124 167.128C136.742 166.68 137.478 166.456 138.332 166.456C140.337 166.456 141.43 167.299 141.612 168.984H139.82C139.734 168.6 139.574 168.317 139.34 168.136C139.116 167.955 138.78 167.864 138.332 167.864C137.916 167.864 137.59 167.955 137.356 168.136C137.121 168.317 137.004 168.557 137.004 168.856C137.004 169.155 137.126 169.379 137.372 169.528C137.617 169.677 138.07 169.811 138.732 169.928C139.82 170.099 140.614 170.36 141.116 170.712C141.617 171.064 141.868 171.656 141.868 172.488C141.868 173.341 141.574 174.003 140.988 174.472C140.412 174.931 139.59 175.16 138.524 175.16ZM143.614 175V166.632H145.55V175H143.614ZM145.374 164.936C145.15 165.149 144.878 165.256 144.558 165.256C144.238 165.256 143.966 165.149 143.742 164.936C143.518 164.723 143.406 164.461 143.406 164.152C143.406 163.832 143.518 163.565 143.742 163.352C143.966 163.139 144.238 163.032 144.558 163.032C144.878 163.032 145.15 163.139 145.374 163.352C145.598 163.565 145.71 163.832 145.71 164.152C145.71 164.461 145.598 164.723 145.374 164.936ZM151.478 178.072C150.23 178.072 149.275 177.821 148.614 177.32C147.952 176.819 147.563 176.141 147.446 175.288H149.398C149.568 176.163 150.256 176.6 151.462 176.6C153.019 176.6 153.798 175.848 153.798 174.344V173.112C153.552 173.539 153.179 173.907 152.678 174.216C152.187 174.515 151.648 174.664 151.062 174.664C149.995 174.664 149.11 174.296 148.406 173.56C147.702 172.824 147.35 171.864 147.35 170.68V170.568C147.35 169.395 147.707 168.419 148.422 167.64C149.136 166.851 150.032 166.456 151.11 166.456C152.347 166.456 153.243 166.941 153.798 167.912V166.632H155.734V174.376C155.723 175.581 155.339 176.499 154.582 177.128C153.835 177.757 152.8 178.072 151.478 178.072ZM151.542 173.176C152.224 173.176 152.779 172.947 153.206 172.488C153.643 172.029 153.862 171.405 153.862 170.616V170.504C153.862 169.715 153.659 169.096 153.254 168.648C152.848 168.2 152.299 167.976 151.606 167.976C150.902 167.976 150.347 168.211 149.942 168.68C149.536 169.149 149.334 169.768 149.334 170.536V170.664C149.334 171.421 149.542 172.029 149.958 172.488C150.374 172.947 150.902 173.176 151.542 173.176ZM158.035 175V162.76H159.971V167.96C160.184 167.523 160.525 167.165 160.995 166.888C161.464 166.6 162.024 166.456 162.675 166.456C163.56 166.456 164.259 166.728 164.771 167.272C165.283 167.805 165.539 168.627 165.539 169.736V175H163.603V169.912C163.603 169.283 163.469 168.819 163.203 168.52C162.936 168.221 162.515 168.072 161.939 168.072C161.363 168.072 160.888 168.248 160.515 168.6C160.152 168.941 159.971 169.432 159.971 170.072V175H158.035ZM170.617 175.144C169.796 175.144 169.166 174.931 168.729 174.504C168.302 174.077 168.089 173.464 168.089 172.664V168.088H166.969V166.632H168.089V164.792H170.025V166.632H171.865V168.088H170.025V172.488C170.025 173.203 170.345 173.56 170.985 173.56C171.358 173.56 171.673 173.507 171.929 173.4V174.936C171.556 175.075 171.118 175.144 170.617 175.144ZM176.617 175.16C175.54 175.16 174.697 174.92 174.089 174.44C173.481 173.96 173.156 173.277 173.113 172.392H174.937C174.991 172.84 175.145 173.176 175.401 173.4C175.657 173.624 176.057 173.736 176.601 173.736C177.604 173.736 178.105 173.379 178.105 172.664C178.105 172.333 177.967 172.088 177.689 171.928C177.423 171.757 176.964 171.619 176.313 171.512C175.193 171.331 174.409 171.059 173.961 170.696C173.513 170.323 173.289 169.747 173.289 168.968C173.289 168.179 173.599 167.565 174.217 167.128C174.836 166.68 175.572 166.456 176.425 166.456C178.431 166.456 179.524 167.299 179.705 168.984H177.913C177.828 168.6 177.668 168.317 177.433 168.136C177.209 167.955 176.873 167.864 176.425 167.864C176.009 167.864 175.684 167.955 175.449 168.136C175.215 168.317 175.097 168.557 175.097 168.856C175.097 169.155 175.22 169.379 175.465 169.528C175.711 169.677 176.164 169.811 176.825 169.928C177.913 170.099 178.708 170.36 179.209 170.712C179.711 171.064 179.961 171.656 179.961 172.488C179.961 173.341 179.668 174.003 179.081 174.472C178.505 174.931 177.684 175.16 176.617 175.16Z"
          fill="white"/>
    <path d="M81.5035 130V121.42H86.8675V122.68H83.0995V125.032H86.1235V126.232H83.0995V128.74H87.0715V130H81.5035ZM87.8379 130L90.0219 126.784L87.9819 123.724H89.6619L90.9699 125.752L92.2659 123.724H93.7899L91.7619 126.676L94.0059 130H92.3139L90.8499 127.732L89.3499 130H87.8379ZM95.1179 132.148V123.724H96.5699V124.732C96.7539 124.412 97.0299 124.144 97.3979 123.928C97.7739 123.704 98.1819 123.592 98.6219 123.592C99.4299 123.592 100.094 123.88 100.614 124.456C101.142 125.024 101.406 125.8 101.406 126.784V126.88C101.406 127.872 101.146 128.66 100.626 129.244C100.114 129.828 99.4459 130.12 98.6219 130.12C98.1499 130.12 97.7339 130.02 97.3739 129.82C97.0139 129.612 96.7459 129.344 96.5699 129.016V132.148H95.1179ZM98.2619 128.968C98.7979 128.968 99.2059 128.792 99.4859 128.44C99.7739 128.088 99.9179 127.576 99.9179 126.904V126.808C99.9179 126.136 99.7619 125.624 99.4499 125.272C99.1459 124.912 98.7459 124.732 98.2499 124.732C97.7299 124.732 97.3099 124.912 96.9899 125.272C96.6779 125.624 96.5219 126.136 96.5219 126.808V126.904C96.5219 127.584 96.6739 128.1 96.9779 128.452C97.2899 128.796 97.7179 128.968 98.2619 128.968ZM105.52 128.992C106.056 128.992 106.476 128.808 106.78 128.44C107.092 128.064 107.248 127.552 107.248 126.904V126.82C107.248 126.172 107.092 125.664 106.78 125.296C106.476 124.92 106.056 124.732 105.52 124.732C104.976 124.732 104.548 124.916 104.236 125.284C103.932 125.652 103.78 126.16 103.78 126.808V126.904C103.78 127.552 103.932 128.064 104.236 128.44C104.548 128.808 104.976 128.992 105.52 128.992ZM107.824 129.232C107.216 129.824 106.444 130.12 105.508 130.12C104.572 130.12 103.8 129.824 103.192 129.232C102.592 128.64 102.292 127.872 102.292 126.928V126.832C102.292 125.872 102.596 125.092 103.204 124.492C103.812 123.892 104.584 123.592 105.52 123.592C106.448 123.592 107.216 123.888 107.824 124.48C108.432 125.072 108.736 125.844 108.736 126.796V126.892C108.736 127.86 108.432 128.64 107.824 129.232ZM110.048 130V123.724H111.5V124.9C111.916 124.06 112.596 123.636 113.54 123.628V124.984C112.86 124.992 112.348 125.128 112.004 125.392C111.668 125.656 111.5 126.104 111.5 126.736V130H110.048ZM117.012 130.108C116.396 130.108 115.924 129.948 115.596 129.628C115.276 129.308 115.116 128.848 115.116 128.248V124.816H114.276V123.724H115.116V122.344H116.568V123.724H117.948V124.816H116.568V128.116C116.568 128.652 116.808 128.92 117.288 128.92C117.568 128.92 117.804 128.88 117.996 128.8V129.952C117.716 130.056 117.388 130.108 117.012 130.108ZM123.809 130.12C123.193 130.12 122.689 129.968 122.297 129.664C121.905 129.352 121.709 128.884 121.709 128.26C121.709 127.572 122.001 127.068 122.585 126.748C123.169 126.428 123.949 126.268 124.925 126.268H125.705V125.944C125.705 125.512 125.617 125.196 125.441 124.996C125.273 124.788 124.981 124.684 124.565 124.684C123.837 124.684 123.437 125.012 123.365 125.668H121.961C122.017 124.972 122.289 124.452 122.777 124.108C123.273 123.764 123.897 123.592 124.649 123.592C126.321 123.592 127.157 124.356 127.157 125.884V130H125.729V129.232C125.281 129.824 124.641 130.12 123.809 130.12ZM124.157 129.076C124.613 129.076 124.985 128.964 125.273 128.74C125.561 128.508 125.705 128.196 125.705 127.804V127.18H124.961C123.753 127.18 123.149 127.52 123.149 128.2C123.149 128.784 123.485 129.076 124.157 129.076ZM130.969 130.12C130.161 130.12 129.529 129.94 129.073 129.58C128.617 129.22 128.373 128.708 128.341 128.044H129.709C129.749 128.38 129.865 128.632 130.057 128.8C130.249 128.968 130.549 129.052 130.957 129.052C131.709 129.052 132.085 128.784 132.085 128.248C132.085 128 131.981 127.816 131.773 127.696C131.573 127.568 131.229 127.464 130.741 127.384C129.901 127.248 129.313 127.044 128.977 126.772C128.641 126.492 128.473 126.06 128.473 125.476C128.473 124.884 128.705 124.424 129.169 124.096C129.633 123.76 130.185 123.592 130.825 123.592C132.329 123.592 133.149 124.224 133.285 125.488H131.941C131.877 125.2 131.757 124.988 131.581 124.852C131.413 124.716 131.161 124.648 130.825 124.648C130.513 124.648 130.269 124.716 130.093 124.852C129.917 124.988 129.829 125.168 129.829 125.392C129.829 125.616 129.921 125.784 130.105 125.896C130.289 126.008 130.629 126.108 131.125 126.196C131.941 126.324 132.537 126.52 132.913 126.784C133.289 127.048 133.477 127.492 133.477 128.116C133.477 128.756 133.257 129.252 132.817 129.604C132.385 129.948 131.769 130.12 130.969 130.12ZM135.663 130.084C135.399 130.084 135.175 129.996 134.991 129.82C134.807 129.636 134.715 129.412 134.715 129.148C134.715 128.884 134.807 128.66 134.991 128.476C135.175 128.292 135.399 128.2 135.663 128.2C135.935 128.2 136.163 128.292 136.347 128.476C136.531 128.66 136.623 128.884 136.623 129.148C136.623 129.412 136.531 129.636 136.347 129.82C136.163 129.996 135.935 130.084 135.663 130.084ZM135.663 126.58C135.399 126.58 135.175 126.488 134.991 126.304C134.807 126.12 134.715 125.896 134.715 125.632C134.715 125.368 134.807 125.148 134.991 124.972C135.175 124.788 135.399 124.696 135.663 124.696C135.935 124.696 136.163 124.788 136.347 124.972C136.531 125.148 136.623 125.368 136.623 125.632C136.623 125.896 136.531 126.12 136.347 126.304C136.163 126.488 135.935 126.58 135.663 126.58ZM141.705 130H142.749V126.508H144.141C145.773 126.508 147.141 125.8 147.141 123.976V123.928C147.141 122.14 145.785 121.42 144.141 121.42H141.705V130ZM142.749 125.68V122.26H144.213C145.377 122.26 146.097 122.716 146.097 123.928V123.976C146.097 125.08 145.437 125.68 144.213 125.68H142.749ZM148.678 130H149.674V122.644L154.006 130H155.206V121.42H154.21V128.512L150.034 121.42H148.678V130ZM161.093 130.108C163.289 130.108 164.813 128.788 164.813 126.304V125.668H161.285V126.532H163.793C163.757 128.056 162.953 129.268 161.093 129.268C159.077 129.268 158.021 127.876 158.021 125.752V125.656C158.021 123.556 159.149 122.116 161.117 122.116C162.365 122.116 163.301 122.644 163.541 124.012H164.585C164.321 122.08 162.797 121.288 161.093 121.288C158.633 121.288 156.941 123.16 156.941 125.668V125.764C156.941 128.272 158.453 130.108 161.093 130.108Z"
          fill="#3B3B3B"/>
    <line x1="16" y1="43.5" x2="230" y2="43.5" stroke="#EFEFEF"/>
    <rect x="16.5" y="64.5" width="213" height="39" rx="1.5" fill="#F7F7F7" stroke="#888888"/>
    <path d="M27.08 88H28.124V84.508H29.516C31.148 84.508 32.516 83.8 32.516 81.976V81.928C32.516 80.14 31.16 79.42 29.516 79.42H27.08V88ZM28.124 83.68V80.26H29.588C30.752 80.26 31.472 80.716 31.472 81.928V81.976C31.472 83.08 30.812 83.68 29.588 83.68H28.124ZM34.0527 88H35.0487V80.644L39.3807 88H40.5807V79.42H39.5847V86.512L35.4087 79.42H34.0527V88ZM46.4683 88.108C48.6643 88.108 50.1883 86.788 50.1883 84.304V83.668H46.6603V84.532H49.1683C49.1323 86.056 48.3283 87.268 46.4683 87.268C44.4523 87.268 43.3963 85.876 43.3963 83.752V83.656C43.3963 81.556 44.5243 80.116 46.4923 80.116C47.7403 80.116 48.6763 80.644 48.9163 82.012H49.9603C49.6963 80.08 48.1723 79.288 46.4683 79.288C44.0083 79.288 42.3163 81.16 42.3163 83.668V83.764C42.3163 86.272 43.8283 88.108 46.4683 88.108Z"
          fill="#3B3B3B"/>
    <path d="M208.72 81.44C208.545 81.6255 208.448 81.8704 208.448 82.125C208.448 82.3796 208.545 82.6245 208.72 82.81L214 87.81L219.28 82.81C219.454 82.6245 219.551 82.3796 219.551 82.125C219.551 81.8704 219.454 81.6255 219.28 81.44C219.094 81.2627 218.847 81.1638 218.59 81.1638C218.333 81.1638 218.086 81.2627 217.9 81.44L214 85.12L210.1 81.44C209.914 81.2627 209.667 81.1638 209.41 81.1638C209.153 81.1638 208.906 81.2627 208.72 81.44Z"
          fill="#3B3B3B"/>
    <path d="M230 22C230 21.7348 229.895 21.4804 229.707 21.2929C229.52 21.1054 229.265 21 229 21H226V18C226 17.7348 225.895 17.4804 225.707 17.2929C225.52 17.1054 225.265 17 225 17C224.735 17 224.48 17.1054 224.293 17.2929C224.105 17.4804 224 17.7348 224 18V21H221C220.735 21 220.48 21.1054 220.293 21.2929C220.105 21.4804 220 21.7348 220 22C220 22.2652 220.105 22.5196 220.293 22.7071C220.48 22.8946 220.735 23 221 23H224V26C224 26.2652 224.105 26.5196 224.293 26.7071C224.48 26.8946 224.735 27 225 27C225.265 27 225.52 26.8946 225.707 26.7071C225.895 26.5196 226 26.2652 226 26V23H229C229.265 23 229.52 22.8946 229.707 22.7071C229.895 22.5196 230 22.2652 230 22Z"
          fill="#3B3B3B"/>
    <path d="M16.984 26V17.42H22.3V18.692H18.58V21.248H21.508V22.484H18.58V26H16.984ZM23.4859 26V19.724H24.9379V26H23.4859ZM24.8059 18.452C24.6379 18.612 24.4339 18.692 24.1939 18.692C23.9539 18.692 23.7499 18.612 23.5819 18.452C23.4139 18.292 23.3299 18.096 23.3299 17.864C23.3299 17.624 23.4139 17.424 23.5819 17.264C23.7499 17.104 23.9539 17.024 24.1939 17.024C24.4339 17.024 24.6379 17.104 24.8059 17.264C24.9739 17.424 25.0579 17.624 25.0579 17.864C25.0579 18.096 24.9739 18.292 24.8059 18.452ZM26.7438 26V16.82H28.1958V26H26.7438ZM32.7256 26.12C31.7896 26.12 31.0256 25.832 30.4336 25.256C29.8416 24.68 29.5456 23.904 29.5456 22.928V22.832C29.5456 21.872 29.8376 21.092 30.4216 20.492C31.0136 19.892 31.7616 19.592 32.6656 19.592C33.5136 19.592 34.2176 19.856 34.7776 20.384C35.3456 20.912 35.6296 21.704 35.6296 22.76V23.18H31.0336C31.0576 23.78 31.2176 24.24 31.5136 24.56C31.8096 24.88 32.2256 25.04 32.7616 25.04C33.6096 25.04 34.0896 24.72 34.2016 24.08H35.6056C35.5016 24.736 35.1976 25.24 34.6936 25.592C34.1896 25.944 33.5336 26.12 32.7256 26.12ZM31.0576 22.208H34.1896C34.1176 21.168 33.6096 20.648 32.6656 20.648C32.2336 20.648 31.8736 20.788 31.5856 21.068C31.3056 21.34 31.1296 21.72 31.0576 22.208ZM39.9059 26V17.42H45.2699V18.68H41.5019V21.032H44.5259V22.232H41.5019V24.74H45.4739V26H39.9059ZM46.2403 26L48.4243 22.784L46.3843 19.724H48.0643L49.3723 21.752L50.6683 19.724H52.1923L50.1643 22.676L52.4083 26H50.7163L49.2523 23.732L47.7523 26H46.2403ZM53.5203 28.148V19.724H54.9723V20.732C55.1563 20.412 55.4323 20.144 55.8003 19.928C56.1763 19.704 56.5843 19.592 57.0243 19.592C57.8323 19.592 58.4963 19.88 59.0163 20.456C59.5443 21.024 59.8083 21.8 59.8083 22.784V22.88C59.8083 23.872 59.5483 24.66 59.0283 25.244C58.5163 25.828 57.8483 26.12 57.0243 26.12C56.5523 26.12 56.1363 26.02 55.7763 25.82C55.4163 25.612 55.1483 25.344 54.9723 25.016V28.148H53.5203ZM56.6643 24.968C57.2003 24.968 57.6083 24.792 57.8883 24.44C58.1763 24.088 58.3203 23.576 58.3203 22.904V22.808C58.3203 22.136 58.1643 21.624 57.8523 21.272C57.5483 20.912 57.1483 20.732 56.6523 20.732C56.1323 20.732 55.7123 20.912 55.3923 21.272C55.0803 21.624 54.9243 22.136 54.9243 22.808V22.904C54.9243 23.584 55.0763 24.1 55.3803 24.452C55.6923 24.796 56.1203 24.968 56.6643 24.968ZM63.922 24.992C64.458 24.992 64.878 24.808 65.182 24.44C65.494 24.064 65.65 23.552 65.65 22.904V22.82C65.65 22.172 65.494 21.664 65.182 21.296C64.878 20.92 64.458 20.732 63.922 20.732C63.378 20.732 62.95 20.916 62.638 21.284C62.334 21.652 62.182 22.16 62.182 22.808V22.904C62.182 23.552 62.334 24.064 62.638 24.44C62.95 24.808 63.378 24.992 63.922 24.992ZM66.226 25.232C65.618 25.824 64.846 26.12 63.91 26.12C62.974 26.12 62.202 25.824 61.594 25.232C60.994 24.64 60.694 23.872 60.694 22.928V22.832C60.694 21.872 60.998 21.092 61.606 20.492C62.214 19.892 62.986 19.592 63.922 19.592C64.85 19.592 65.618 19.888 66.226 20.48C66.834 21.072 67.138 21.844 67.138 22.796V22.892C67.138 23.86 66.834 24.64 66.226 25.232ZM68.4499 26V19.724H69.9019V20.9C70.3179 20.06 70.9979 19.636 71.9419 19.628V20.984C71.2619 20.992 70.7499 21.128 70.4059 21.392C70.0699 21.656 69.9019 22.104 69.9019 22.736V26H68.4499ZM75.4141 26.108C74.7981 26.108 74.3261 25.948 73.9981 25.628C73.6781 25.308 73.5181 24.848 73.5181 24.248V20.816H72.6781V19.724H73.5181V18.344H74.9701V19.724H76.3501V20.816H74.9701V24.116C74.9701 24.652 75.2101 24.92 75.6901 24.92C75.9701 24.92 76.2061 24.88 76.3981 24.8V25.952C76.1181 26.056 75.7901 26.108 75.4141 26.108Z"
          fill="#3B3B3B"/>
    <line x1="4.37114e-08" y1="0.5" x2="246" y2="0.500022" stroke="#E0E0E0"/>
</svg>
