<svg width="246" height="86" viewBox="0 0 246 86" fill="none" xmlns="http://www.w3.org/2000/svg">
    <g clip-path="url(#clip0)">
        <rect width="246" height="86" fill="white"/>
        <path d="M157.181 68V59.42H162.497V60.692H158.777V63.248H161.705V64.484H158.777V68H157.181ZM166.268 66.992C166.804 66.992 167.224 66.808 167.528 66.44C167.84 66.064 167.996 65.552 167.996 64.904V64.82C167.996 64.172 167.84 63.664 167.528 63.296C167.224 62.92 166.804 62.732 166.268 62.732C165.724 62.732 165.296 62.916 164.984 63.284C164.68 63.652 164.528 64.16 164.528 64.808V64.904C164.528 65.552 164.68 66.064 164.984 66.44C165.296 66.808 165.724 66.992 166.268 66.992ZM168.572 67.232C167.964 67.824 167.192 68.12 166.256 68.12C165.32 68.12 164.548 67.824 163.94 67.232C163.34 66.64 163.04 65.872 163.04 64.928V64.832C163.04 63.872 163.344 63.092 163.952 62.492C164.56 61.892 165.332 61.592 166.268 61.592C167.196 61.592 167.964 61.888 168.572 62.48C169.18 63.072 169.484 63.844 169.484 64.796V64.892C169.484 65.86 169.18 66.64 168.572 67.232ZM170.796 68V61.724H172.248V62.9C172.664 62.06 173.344 61.636 174.288 61.628V62.984C173.608 62.992 173.096 63.128 172.752 63.392C172.416 63.656 172.248 64.104 172.248 64.736V68H170.796ZM175.565 68V61.724H177.017V62.684C177.177 62.372 177.425 62.112 177.761 61.904C178.097 61.696 178.485 61.592 178.925 61.592C179.805 61.592 180.397 61.968 180.701 62.72C180.933 62.352 181.241 62.072 181.625 61.88C182.009 61.688 182.409 61.592 182.825 61.592C183.441 61.592 183.941 61.796 184.325 62.204C184.717 62.604 184.913 63.212 184.913 64.028V68H183.461V64.124C183.461 63.244 183.089 62.804 182.345 62.804C181.961 62.804 181.633 62.932 181.361 63.188C181.097 63.436 180.965 63.788 180.965 64.244V68H179.513V64.124C179.513 63.244 179.141 62.804 178.397 62.804C178.013 62.804 177.685 62.932 177.413 63.188C177.149 63.436 177.017 63.788 177.017 64.244V68H175.565ZM188.225 68.12C187.609 68.12 187.105 67.968 186.713 67.664C186.321 67.352 186.125 66.884 186.125 66.26C186.125 65.572 186.417 65.068 187.001 64.748C187.585 64.428 188.365 64.268 189.341 64.268H190.121V63.944C190.121 63.512 190.033 63.196 189.857 62.996C189.689 62.788 189.397 62.684 188.981 62.684C188.253 62.684 187.853 63.012 187.781 63.668H186.377C186.433 62.972 186.705 62.452 187.193 62.108C187.689 61.764 188.313 61.592 189.065 61.592C190.737 61.592 191.573 62.356 191.573 63.884V68H190.145V67.232C189.697 67.824 189.057 68.12 188.225 68.12ZM188.573 67.076C189.029 67.076 189.401 66.964 189.689 66.74C189.977 66.508 190.121 66.196 190.121 65.804V65.18H189.377C188.169 65.18 187.565 65.52 187.565 66.2C187.565 66.784 187.901 67.076 188.573 67.076ZM195.373 68.108C194.757 68.108 194.285 67.948 193.957 67.628C193.637 67.308 193.477 66.848 193.477 66.248V62.816H192.637V61.724H193.477V60.344H194.929V61.724H196.309V62.816H194.929V66.116C194.929 66.652 195.169 66.92 195.649 66.92C195.929 66.92 196.165 66.88 196.357 66.8V67.952C196.077 68.056 195.749 68.108 195.373 68.108Z"
              fill="#3B3B3B"/>
        <path d="M123 16H228C229.105 16 230 16.8954 230 18V46C230 47.1046 229.105 48 228 48H123V16Z" fill="#55BD00"/>
        <path d="M188 27V21H182V23H172V21H166V27H168V37H166V43H172V41H182V43H188V37H186V27H188ZM168 23H170V25H168V23ZM170 41H168V39H170V41ZM182 39H172V37H170V27H172V25H182V27H184V37H182V39ZM186 41H184V39H186V41ZM184 25V23H186V25H184ZM178.73 34H175.24L174.51 36H172.89L176.29 27H177.69L181.1 36H179.47L178.73 34ZM175.69 32.74H178.3L177 28.91L175.69 32.74Z"
              fill="white"/>
        <path d="M42.1913 66.74H43.1273C44.0713 66.74 44.7793 66.484 45.2513 65.972C45.7313 65.452 45.9713 64.708 45.9713 63.74V63.644C45.9713 61.668 45.0193 60.68 43.1153 60.68H42.1913V66.74ZM40.5953 68V59.42H43.1993C44.6553 59.42 45.7593 59.8 46.5113 60.56C47.2633 61.312 47.6393 62.332 47.6393 63.62V63.728C47.6393 65.024 47.2593 66.06 46.4993 66.836C45.7393 67.612 44.6313 68 43.1753 68H40.5953ZM51.8497 66.992C52.3857 66.992 52.8057 66.808 53.1097 66.44C53.4217 66.064 53.5777 65.552 53.5777 64.904V64.82C53.5777 64.172 53.4217 63.664 53.1097 63.296C52.8057 62.92 52.3857 62.732 51.8497 62.732C51.3057 62.732 50.8777 62.916 50.5657 63.284C50.2617 63.652 50.1097 64.16 50.1097 64.808V64.904C50.1097 65.552 50.2617 66.064 50.5657 66.44C50.8777 66.808 51.3057 66.992 51.8497 66.992ZM54.1537 67.232C53.5457 67.824 52.7737 68.12 51.8377 68.12C50.9017 68.12 50.1297 67.824 49.5217 67.232C48.9217 66.64 48.6217 65.872 48.6217 64.928V64.832C48.6217 63.872 48.9257 63.092 49.5337 62.492C50.1417 61.892 50.9137 61.592 51.8497 61.592C52.7777 61.592 53.5457 61.888 54.1537 62.48C54.7617 63.072 55.0657 63.844 55.0657 64.796V64.892C55.0657 65.86 54.7617 66.64 54.1537 67.232ZM59.1257 68.12C58.2057 68.12 57.4457 67.836 56.8457 67.268C56.2537 66.692 55.9577 65.916 55.9577 64.94V64.844C55.9577 63.868 56.2617 63.084 56.8697 62.492C57.4777 61.892 58.2297 61.592 59.1257 61.592C59.8937 61.592 60.5417 61.784 61.0697 62.168C61.6057 62.544 61.9137 63.136 61.9937 63.944H60.5897C60.4777 63.152 59.9977 62.756 59.1497 62.756C58.6457 62.756 58.2337 62.94 57.9137 63.308C57.6017 63.676 57.4457 64.18 57.4457 64.82V64.916C57.4457 65.588 57.5977 66.104 57.9017 66.464C58.2137 66.824 58.6417 67.004 59.1857 67.004C59.5857 67.004 59.9257 66.888 60.2057 66.656C60.4937 66.416 60.6577 66.084 60.6977 65.66H62.0297C61.9737 66.396 61.6857 66.992 61.1657 67.448C60.6457 67.896 59.9657 68.12 59.1257 68.12ZM65.38 68.12C64.724 68.12 64.2 67.924 63.808 67.532C63.416 67.14 63.22 66.544 63.22 65.744V61.724H64.672V65.576C64.672 66.048 64.772 66.396 64.972 66.62C65.172 66.844 65.484 66.956 65.908 66.956C66.324 66.956 66.672 66.824 66.952 66.56C67.232 66.296 67.372 65.928 67.372 65.456V61.724H68.824V68H67.372V67.016C67.204 67.344 66.948 67.612 66.604 67.82C66.268 68.02 65.86 68.12 65.38 68.12ZM70.5456 68V61.724H71.9976V62.684C72.1576 62.372 72.4056 62.112 72.7416 61.904C73.0776 61.696 73.4656 61.592 73.9056 61.592C74.7856 61.592 75.3776 61.968 75.6816 62.72C75.9136 62.352 76.2216 62.072 76.6056 61.88C76.9896 61.688 77.3896 61.592 77.8056 61.592C78.4216 61.592 78.9216 61.796 79.3056 62.204C79.6976 62.604 79.8936 63.212 79.8936 64.028V68H78.4416V64.124C78.4416 63.244 78.0696 62.804 77.3256 62.804C76.9416 62.804 76.6136 62.932 76.3416 63.188C76.0776 63.436 75.9456 63.788 75.9456 64.244V68H74.4936V64.124C74.4936 63.244 74.1216 62.804 73.3776 62.804C72.9936 62.804 72.6656 62.932 72.3936 63.188C72.1296 63.436 71.9976 63.788 71.9976 64.244V68H70.5456ZM84.3213 68.12C83.3853 68.12 82.6213 67.832 82.0293 67.256C81.4373 66.68 81.1413 65.904 81.1413 64.928V64.832C81.1413 63.872 81.4333 63.092 82.0173 62.492C82.6093 61.892 83.3573 61.592 84.2613 61.592C85.1093 61.592 85.8133 61.856 86.3733 62.384C86.9413 62.912 87.2253 63.704 87.2253 64.76V65.18H82.6293C82.6533 65.78 82.8133 66.24 83.1093 66.56C83.4053 66.88 83.8213 67.04 84.3573 67.04C85.2053 67.04 85.6853 66.72 85.7973 66.08H87.2013C87.0973 66.736 86.7933 67.24 86.2893 67.592C85.7853 67.944 85.1293 68.12 84.3213 68.12ZM82.6533 64.208H85.7853C85.7133 63.168 85.2053 62.648 84.2613 62.648C83.8293 62.648 83.4693 62.788 83.1813 63.068C82.9013 63.34 82.7253 63.72 82.6533 64.208ZM88.5222 68V61.724H89.9742V62.72C90.1342 62.392 90.3902 62.124 90.7422 61.916C91.0942 61.7 91.5142 61.592 92.0022 61.592C92.6662 61.592 93.1902 61.796 93.5742 62.204C93.9582 62.604 94.1502 63.22 94.1502 64.052V68H92.6982V64.184C92.6982 63.712 92.5982 63.364 92.3982 63.14C92.1982 62.916 91.8822 62.804 91.4502 62.804C91.0182 62.804 90.6622 62.936 90.3822 63.2C90.1102 63.456 89.9742 63.824 89.9742 64.304V68H88.5222ZM97.959 68.108C97.343 68.108 96.871 67.948 96.543 67.628C96.223 67.308 96.063 66.848 96.063 66.248V62.816H95.223V61.724H96.063V60.344H97.515V61.724H98.895V62.816H97.515V66.116C97.515 66.652 97.755 66.92 98.235 66.92C98.515 66.92 98.751 66.88 98.943 66.8V67.952C98.663 68.056 98.335 68.108 97.959 68.108Z"
              fill="#B5B5B5"/>
        <path d="M16 18C16 16.8954 16.8954 16 18 16H123V48H18C16.8954 48 16 47.1046 16 46V18Z" fill="#E9E9E9"/>
        <path d="M77 25V39H63V25H77ZM77 23H63C61.9 23 61 23.9 61 25V39C61 40.1 61.9 41 63 41H77C78.1 41 79 40.1 79 39V25C79 23.9 78.1 23 77 23Z"
              fill="#B5B5B5"/>
        <path d="M72 37H65V35H72V37ZM75 33H65V31H75V33ZM75 29H65V27H75V29Z" fill="#B5B5B5"/>
        <line x1="4.37114e-08" y1="85.5" x2="246" y2="85.5" stroke="#E0E0E0"/>
    </g>
    <defs>
        <clipPath id="clip0">
            <rect width="246" height="86" fill="white"/>
        </clipPath>
    </defs>
</svg>
